<svg id="Layer_2" data-name="Layer 2" xmlns="http://www.w3.org/2000/svg" width="191" height="38" viewBox="0 0 180.94 37.61"><defs><style>.cls-1{fill:#fdc305;}.cls-2{fill:#f06351;}.cls-3{fill:#111;}</style></defs><title>logo-mobile-1</title><path class="cls-1" d="M6.07,20.72l0-2.26a143.26,143.26,0,0,1,20.17-1.33c0,.6,0,1.21-.06,1.82a25.52,25.52,0,0,1,6-1.82A16.67,16.67,0,0,0,.19,20.39Z" transform="translate(0 0)"/><path class="cls-1" d="M27.24,24.23c-1.16,1.28-1.39,1.2-1.39,3.45,0,.91,0,4.9,0,9.18A16.64,16.64,0,0,0,33.32,23,17.3,17.3,0,0,0,33,19.9,33.11,33.11,0,0,0,27.24,24.23Z" transform="translate(0 0)"/><path class="cls-1" d="M6.36,25.72s-3.79-1.44-5.19-1.83A8.54,8.54,0,0,0,0,23.61a16.65,16.65,0,0,0,8.68,14Z" transform="translate(0 0)"/><path class="cls-2" d="M26.29,17.12A89.8,89.8,0,0,0,24.89.65S24.75-.64,24,.41a14.22,14.22,0,0,0-1.2,3.94,70.34,70.34,0,0,0-12.77.34C9.24,2,7.85.75,7.18,1s-.72,3.31-.72,3.31l-.33,14.1A143.22,143.22,0,0,1,26.29,17.12Z" transform="translate(0 0)"/><path d="M12.41,14c0-.09,1,.68,1.41.92s.61.42.61.59-.27.34-.63.34-.91-.12-1-.27l.94,0h.29A8.34,8.34,0,0,1,12.41,14Z" transform="translate(0 0)"/><path d="M19.89,14.11,18.8,15.44c0,.06-.17.35.18.3a7.35,7.35,0,0,0,1.22-.29c.11,0,.07-.19-.11-.17s-.69.05-1,.11l.84-1.26S20,14,19.89,14.11Z" transform="translate(0 0)"/><path d="M16.75,20.2a2.3,2.3,0,0,0,1.09-1c.28-.65,0-.91-.44-1a2.43,2.43,0,0,0-1.74.34c-.39.36-.34.72-.05,1A5.34,5.34,0,0,0,16.75,20.2Z" transform="translate(0 0)"/><path class="cls-2" d="M16.35,21.45a1.92,1.92,0,0,1-.46.6,1.73,1.73,0,0,1-1,.38A2.15,2.15,0,0,1,13.42,22a2.3,2.3,0,0,1-.53-.44,1.07,1.07,0,0,0-.36-.26s.75,4.1,2.57,4.75,2.14-.75,2.2-1.13a5.61,5.61,0,0,0-.82-3.23C16.46,21.38,16.45,21.58,16.35,21.45Z" transform="translate(0 0)"/><path d="M14.71,22.59h0a3.44,3.44,0,0,1-2.33-1.42.14.14,0,0,1,0-.2.14.14,0,0,1,.2,0,3.26,3.26,0,0,0,2.11,1.3h0a2.09,2.09,0,0,0,1.63-1l.14-.19.1.21s.37.76,1,.8,1.05-.41,1.61-1.28a.14.14,0,0,1,.2,0,.15.15,0,0,1,.05.2c-.64,1-1.27,1.44-1.88,1.4a1.55,1.55,0,0,1-1.12-.76A2.26,2.26,0,0,1,14.71,22.59Z" transform="translate(0 0)"/><path class="cls-2" d="M26.24,18.92a58.63,58.63,0,0,0-5.07,5.19A31.63,31.63,0,0,1,15.88,29c-.22-.53-1.62-1.51-1.62-1.51s-3.13-2.14-5.18-3.82a34.13,34.13,0,0,1-3.13-3l-2-.11a22.57,22.57,0,0,0,12,8.8c.86-.14,3.27-1.86,5.07-3.26a58.13,58.13,0,0,0,5.94-5.89,6.15,6.15,0,0,0,1.14-2C27,18.6,26.24,18.92,26.24,18.92Z" transform="translate(0 0)"/><path class="cls-3" d="M81.66,27.83a6.81,6.81,0,0,1-1.22-4.35V17.14a6.83,6.83,0,0,1,1.21-4.4c.81-1,2.19-1.49,4.15-1.49s3.19.44,4,1.33a5.47,5.47,0,0,1,1.17,3.75v1.52H87.07V16.09a4.23,4.23,0,0,0-.22-1.56c-.14-.36-.5-.54-1-.54a1.1,1.1,0,0,0-1.11.57,4.07,4.07,0,0,0-.26,1.6v8.27A3.78,3.78,0,0,0,84.7,26a1.11,1.11,0,0,0,1.1.55,1,1,0,0,0,1-.55,4.23,4.23,0,0,0,.23-1.6V22.59h3.86V24.1A5.8,5.8,0,0,1,89.76,28c-.77.92-2.1,1.38-4,1.38S82.48,28.83,81.66,27.83Z" transform="translate(0 0)"/><path class="cls-3" d="M95.63,11.49h4.5l3.33,17.59H99.82l-.59-3.72H96.6L96,29.08H92.26ZM98.85,23l-.95-6.86L97,23Z" transform="translate(0 0)"/><path class="cls-3" d="M106.19,14.38H103.5V11.49h9.33v2.89h-2.67v14.7h-4Z" transform="translate(0 0)"/><path class="cls-3" d="M120,11.49h6.92v1.82h-4.43v5.82h3.59v1.74h-3.59v6.45h4.48v1.76h-7Z" transform="translate(0 0)"/><path class="cls-3" d="M128.93,11.49h1.69l5.08,11.68V11.49h2.07V29.08h-1.59l-5.14-12v12h-2.11Z" transform="translate(0 0)"/><path class="cls-3" d="M140.25,11.49h6.92v1.82h-4.43v5.82h3.59v1.74h-3.59v6.45h4.48v1.76h-7Z" transform="translate(0 0)"/><path class="cls-3" d="M149.21,11.49h3.59a6,6,0,0,1,4,1.1,4.5,4.5,0,0,1,1.27,3.57c0,2.26-.74,3.62-2.21,4.1l2.54,8.82H156l-2.34-8.25H151.7v8.25h-2.49Zm3.44,7.58a3.38,3.38,0,0,0,2.3-.63,3,3,0,0,0,.69-2.28,4.93,4.93,0,0,0-.24-1.71,1.66,1.66,0,0,0-.86-.91,4.24,4.24,0,0,0-1.74-.29h-1.1v5.82Z" transform="translate(0 0)"/><path class="cls-3" d="M161.25,27.78a7.65,7.65,0,0,1-1.08-4.48V17.42a10.94,10.94,0,0,1,.43-3.36,3.74,3.74,0,0,1,1.48-2,5.06,5.06,0,0,1,2.87-.7,4.49,4.49,0,0,1,3.56,1.24,5.74,5.74,0,0,1,1.1,3.88v.65h-2.34v-.54a8.75,8.75,0,0,0-.16-1.94,1.62,1.62,0,0,0-.65-1,2.48,2.48,0,0,0-1.46-.35,2.24,2.24,0,0,0-1.55.47A2.22,2.22,0,0,0,162.8,15a12.75,12.75,0,0,0-.14,2.09v6.51a6.25,6.25,0,0,0,.5,2.9,2.43,2.43,0,0,0,3.81-.08,6.65,6.65,0,0,0,.52-3.06V22.11h-2.27V20.37h4.52v8.71h-1.57l-.24-2a3.14,3.14,0,0,1-3.18,2.23A4,4,0,0,1,161.25,27.78Z" transform="translate(0 0)"/><path class="cls-3" d="M174.72,22.87l-3.86-11.38h2.32L175.91,20l2.69-8.49h2.34L177.1,22.87v6.21h-2.38Z" transform="translate(0 0)"/></svg>
